<?xml version="1.0" encoding="utf-8" ?><svg xmlns="http://www.w3.org/2000/svg" xmlns:xlink="http://www.w3.org/1999/xlink" width="3200" height="800" viewBox="0 0 3200 800"><path fill="white" d="M0 0L3200 0L3200 735.552L3200 738.403L3200 800L0 800L0 0Z"/><path fill="#0F5376" d="M1652.74 662.943C1663.52 661.301 1678.81 660.499 1690.05 659.624C1714.06 657.72 1738.1 656.066 1762.14 654.663C1821.18 651.093 1877.58 647.458 1936.72 645.303C2203.39 634.203 2470.48 639.492 2736.5 661.14C2812.52 666.851 2888.32 675.24 2963.74 686.292C3016.95 693.86 3074.12 703.014 3126.4 715.784C3123.47 715.989 3122.24 715.917 3119.65 717.322C3122.17 717.775 3124.65 718.23 3127.2 718.473C3133.29 719.051 3132.06 722.263 3138.73 722.518C3136.69 722.968 3134.65 723.375 3132.59 723.739C3132.02 722.514 3132.09 722.421 3130.91 721.685C3120.05 732.391 3115.22 723.461 3105.71 723.535C3077.23 723.756 2891.63 696.917 2875.81 704.893C2844.52 703.597 2811.54 700.564 2780.04 698.677C2701.26 693.615 2622.41 689.641 2543.52 686.755C2288.49 678.303 2033.23 679.926 1778.32 691.62C1646.69 697.181 1515.23 706.18 1384.06 718.61C1325.38 724.306 1266.51 730.243 1208.06 737.958C1196.85 739.437 1184.7 741.422 1173.47 741.72C1192.13 734.473 1226.45 726.862 1246.76 722.009C1329.64 702.202 1415.35 689.54 1499.93 679.129C1519.95 676.666 1563.42 670.229 1581.07 669.985C1591.23 667.591 1641.46 663.477 1652.74 662.943Z"/><path fill="#0E4060" d="M1581.07 669.985C1591.23 667.591 1641.46 663.477 1652.74 662.943C1657.15 663.277 1659.68 662.744 1663 665.015L1662.44 666.472C1645.95 672.853 1601.86 670.699 1582.34 670.927C1582.1 670.93 1581.27 670.171 1581.07 669.985Z"/><path fill="#0E4060" d="M2875.81 704.893C2891.63 696.917 3077.23 723.756 3105.71 723.535C3115.22 723.461 3120.05 732.391 3130.91 721.685C3132.09 722.421 3132.02 722.514 3132.59 723.739C3134.65 723.375 3136.69 722.968 3138.73 722.518C3132.06 722.263 3133.29 719.051 3127.2 718.473C3124.65 718.23 3122.17 717.775 3119.65 717.322C3122.24 715.917 3123.47 715.989 3126.4 715.784C3151.11 721.669 3175.66 728.261 3200 735.552L3200 738.403C3176.65 736.269 3146.78 730.804 3121.71 728.059C3039.9 718.771 2957.91 711.048 2875.81 704.893Z"/><path fill="#0F5376" d="M558.475 379.912C575.586 377.647 608.077 377.464 626.283 377.31C741.525 376.73 856.346 391.251 967.814 420.504C975.584 422.566 1010.86 431.574 1016 434.35C1088.8 454.822 1171.55 490.854 1232.06 535.394C1236.9 538.96 1255.61 553.311 1259.07 557.378C1264.8 561.287 1268.03 564.253 1273.18 568.96C1257.54 564.14 1233.83 553.271 1217.19 547.109C1187.15 536.313 1156.75 526.588 1126.02 517.953C1121.61 516.679 1102.66 510.82 1099.03 510.918L1097.39 512.739C1114.26 635.962 1019.29 721.348 903.272 733.884C844.535 740.231 790.615 729.197 731.877 730.442C696.114 731.2 646.249 721.521 614.811 703.51C611.137 702.697 598.659 694.767 594.896 692.149C551.25 661.788 513.106 618.126 478.175 578.138L415.176 506.079C404.831 494.205 393.36 479.741 382.523 468.656C365.871 470.356 342.615 473.865 326.196 476.998C326.019 505.532 326.572 535.337 325.851 563.717C326.438 598.66 326.594 647.8 335.127 680.195C346.085 717.543 385.963 702.748 413.022 712.399C422.238 715.467 416.625 729.195 410.118 729.507C355.874 732.107 300.255 725.235 245.763 727.478C214.985 727.902 184.237 730.336 153.472 730.634C145.081 730.715 128.139 728.89 125.951 718.888C130.923 705.243 171.447 710.852 184.778 699.99C203.01 686.842 203.288 651.927 204.758 630.379C207.021 597.208 207.048 561.488 206.907 528.085C206.877 521.072 206.253 510.686 207.708 503.925L204.786 503.699C131.727 522.841 80.0763 538.521 9.53053 565.387C19.6765 549.654 61.8185 521.544 78.8136 511.205C190.613 443.193 322.287 410.253 450.672 391.304C483.853 386.407 525.25 379.564 558.475 379.912Z"/><path fill="#0E4060" d="M207.708 503.925L209.006 503.981C217.553 526.835 211.038 593.607 210.93 620.044C210.818 647.578 211.808 700.021 178.672 708.993C164.542 713.142 147.681 714.309 132.969 717.695C132.181 719.451 132.338 718.731 132.939 720.953L133.485 719.739C144.352 724.948 190.612 722.863 205.107 726.401C202.676 725.808 217.976 725.725 217.979 725.725L218.512 724.908L219.006 725.116L213.143 723.832C218.314 720.217 358.863 721.552 372.711 724.118L373.441 724.259L374.246 721.361C377.189 723.161 411.629 725.783 414.417 723.409L411.273 723.973C408.453 721.766 409.287 719.947 406.755 717.668C403.794 715.003 399.337 716.618 397.98 713.084C399.739 713.079 400.018 713.141 401.739 713.539L402.315 712.378C399.021 710.216 393.614 713.566 386.761 710.019C378.958 710.634 364.974 715.153 355.199 708.821L355.852 708.321C358.189 708.79 359.764 709.43 361.784 708.373C358.687 705.795 356.64 706.16 352.319 706.199L354.219 709.968L353.389 710.592C334.75 700.837 333.097 684.594 326.319 667.479L329.192 665.978C329.009 664.729 328.971 663.498 328.304 662.465C327.604 663.134 326.975 663.739 326.231 664.367C326.344 661.147 326.594 661.477 326.893 659.104C328.486 646.475 322.544 624.872 323.046 614.07L323.24 615.002C323.702 589.369 322.873 563.019 322.622 537.293C322.5 524.871 324.558 488.376 323.072 479.151L322.972 478.565L324.188 478.115C327.151 486.566 321.933 557.499 325.851 563.717C326.438 598.66 326.594 647.8 335.127 680.195C346.085 717.543 385.963 702.748 413.022 712.399C422.238 715.467 416.625 729.195 410.118 729.507C355.874 732.107 300.255 725.235 245.763 727.478C214.985 727.902 184.237 730.336 153.472 730.634C145.081 730.715 128.139 728.89 125.951 718.888C130.923 705.243 171.447 710.852 184.778 699.99C203.01 686.842 203.288 651.927 204.758 630.379C207.021 597.208 207.048 561.488 206.907 528.085C206.877 521.072 206.253 510.686 207.708 503.925Z"/><path fill="#0E4060" d="M9.53053 565.387C19.6765 549.654 61.8185 521.544 78.8136 511.205C190.613 443.193 322.287 410.253 450.672 391.304C483.853 386.407 525.25 379.564 558.475 379.912C561.231 380.059 568.81 380.223 570.892 381.213C570.43 381.791 570.446 382.121 569.786 382.098C547.608 381.356 526.614 385.066 504.637 387.485C500.5 387.941 497.326 389.702 493.26 390.041C483.117 391.715 473.418 386.944 464.74 393.884C462.169 394.697 452.774 393.217 450.903 394.042C433.289 401.804 413.259 399.966 395.368 404.581C368.512 411.509 342.073 416.411 314.771 421.393C305.992 422.995 293.999 429.289 284.832 431.141C263.481 438.22 240.679 442.886 220.183 452.227C212.298 455.82 199.929 458.007 193.083 461.322C167.943 473.499 140.838 483.611 116.334 497.063C98.2247 507.004 81.228 518.68 63.2517 527.267C61.641 529.884 60.8748 531.737 58.0346 532.837L56.7324 532.452L56.0674 530.36C49.9361 533.484 53.0866 541.999 44.5658 539.237C44.19 539.115 43.8159 538.988 43.4438 538.855C41.2409 540.952 22.4258 556.287 22.262 556.654L23.5343 557.192C25.768 555.079 25.1748 554.911 28.2252 553.851C40.2193 549.686 52.2195 545.534 64.2804 541.567C67.3936 542.191 66.3016 542.15 69.576 540.407L70.4018 539.104C65.4405 539.874 52.8687 543.487 50.1673 542.994L49.2203 541.372C65.2861 535.675 82.6214 532.303 98.5353 525.986C101.402 524.847 104.124 523.704 107.074 522.747C126.024 516.687 145.181 511.294 164.51 506.578C166.299 506.146 173.879 504.244 175.335 504.328C184.559 504.862 184.093 509.419 191.657 503.321C186.927 503.643 186.065 505.661 182.883 504.168L183.084 503.127C188.903 500.021 199.859 499.331 204.786 503.699C131.727 522.841 80.0763 538.521 9.53053 565.387Z"/><path fill="#0E4060" d="M614.811 703.51C615.425 703.335 615.296 703.354 615.85 703.254C616.026 703.223 616.202 703.197 616.378 703.166C618.799 702.731 661.315 718.319 669.165 720.292C686.174 724.566 702.916 727.199 720.442 727.784C736.013 728.303 778.858 723.416 790.141 727.858C792.861 728.928 846.522 731.033 851.721 730.525L851.73 731.849C848.274 732.471 837.402 731.697 832.899 731.802C847.295 735.346 848.011 733.274 862.688 732.719C866.012 732.593 867.936 734.445 872.701 733.569L872.637 733.322C869.135 732.573 865.485 731.927 862.178 730.588C869.287 730.235 875.126 730.233 882.028 730.026C895.284 729.628 909.745 726.528 922.853 724.695C928.007 723.975 934.324 727.371 938.504 724.38L936.069 722.496C937.44 718.955 958.025 717.455 959.219 716.129C966.984 707.5 982.256 706.567 993.055 701.35C999.127 698.416 998.993 697.269 1004.38 693.86C1008.49 695.28 1009.93 695.333 1013.51 692.748L1007.72 693.129C1007.31 694.282 1035.44 669.895 1038.06 667.415C1073.21 634.135 1096.13 588.71 1094.73 539.59C1094.57 533.958 1092.4 514.692 1096.06 511.444L1097.39 512.739C1114.26 635.962 1019.29 721.348 903.272 733.884C844.535 740.231 790.615 729.197 731.877 730.442C696.114 731.2 646.249 721.521 614.811 703.51Z"/><path fill="#0E4060" d="M1016 434.35C1088.8 454.822 1171.55 490.854 1232.06 535.394C1236.9 538.96 1255.61 553.311 1259.07 557.378L1257.51 558.331C1236.62 547.086 1222.3 527.214 1199.75 517.181C1192.16 513.802 1181.22 508.712 1174.13 504.43C1138.3 482.813 1098.85 467.147 1059.82 452.328C1050.86 448.91 1020.31 441.289 1016 434.35Z"/><path fill="white" d="M533.173 455.11C527.862 454.417 513.083 455.257 510.665 454.325C512.955 454.048 513.816 453.859 515.776 452.491C525.558 453.059 526.515 448.941 536.458 449.295C563.377 450.251 590.182 447.39 617.042 449.322C625.051 449.898 637.304 448.253 644.433 449.973L644.427 450.563C640.024 450.518 629.31 449.837 626.313 451.912C660.743 452.981 694.586 452.289 729.437 454.12C778.725 456.382 828.554 462.323 877.453 468.135C886.071 469.159 926.186 473.913 931.08 477.476C967.261 503.824 993.878 547.1 991.506 590.76C987.591 662.84 928.044 689.197 864.289 688.569C830.297 687.584 798.954 677.295 775.409 651.525C756.234 630.538 747.117 602.057 740.129 575.009C737.809 566.03 737.892 539.473 725.897 538.765C723.768 538.637 721.681 539.392 720.126 540.853C709.163 551.304 711.382 646.146 709.266 665.727C700.217 660.386 681.774 644.682 673.616 637.262C630.59 598.126 590.777 554.219 551.815 511.01C537.048 494.633 517.296 473.834 503.772 456.974C509.794 456.668 528.111 456.058 533.173 455.11Z"/><path fill="#0E4060" d="M533.173 455.11C527.862 454.417 513.083 455.257 510.665 454.325C512.955 454.048 513.816 453.859 515.776 452.491C525.558 453.059 526.515 448.941 536.458 449.295C563.377 450.251 590.182 447.39 617.042 449.322C625.051 449.898 637.304 448.253 644.433 449.973L644.427 450.563C640.024 450.518 629.31 449.837 626.313 451.912C605.568 452.306 584.83 452.987 564.104 453.954C558.313 454.199 537.566 455.473 533.173 455.11Z"/><defs><linearGradient id="gradient_0" gradientUnits="userSpaceOnUse" x1="923.98578" y1="76.388405" x2="915.15405" y2="410.75522"><stop offset="0" stop-color="#013C5D"/><stop offset="1" stop-color="#24709A"/></linearGradient></defs><path fill="url(#gradient_0)" d="M745.951 259.894C744.894 255.033 744.466 239.46 744.547 233.955C744.982 194.808 761.171 157.487 789.459 130.423C839.232 82.3975 913.434 72.9488 979.384 74.2708C996.34 75.2382 1029.24 77.6074 1045.99 82.2701C1053.79 83.1233 1065.63 86.2628 1073.52 88.2998C1080.56 90.1226 1093.08 91.8159 1095.18 99.5786C1096.01 104.799 1096.22 106.237 1095.79 111.608C1094 146.464 1092.54 181.64 1091.33 216.522C1091.04 224.81 1087.67 235.435 1077.68 233.775C1067.63 232.714 1067.48 222.532 1066.48 214.763C1064.04 205.705 1062.26 195.014 1058.62 186.667C1043.15 151.187 1024.59 135.836 988.952 122.339C950.316 113.784 915.306 112.081 879.193 133.414C864.495 142.096 862.895 148.093 853.126 158.203C792.655 270.555 952.434 320.319 1014.14 379.859C1019.7 385.217 1035.73 397.762 1039.36 404.094L1059.97 426.207L1018.94 411.697C1014.36 411.35 992.793 403.895 986.999 402.201C970.755 397.587 954.398 393.379 937.944 389.579C892.456 378.837 843.523 371.278 797.333 364.026C796.687 363.437 796.047 362.843 795.412 362.243C770.568 338.753 746.921 294.181 745.951 259.894Z"/><path fill="#0F5376" d="M745.951 259.894C744.894 255.033 744.466 239.46 744.547 233.955C744.982 194.808 761.171 157.487 789.459 130.423C839.232 82.3975 913.434 72.9488 979.384 74.2708C980.888 77.2788 981.091 77.7081 984.116 79.098C971.466 79.4798 958.333 78.3859 945.872 79.4521C889.969 84.2354 833.325 98.4572 791.407 137.898C791.704 137.619 789.839 136.791 789.059 136.787C787.728 139.204 787.765 140.291 787.47 143.014C766.748 169.468 750.413 192.713 748.568 226.592C748.24 232.614 748.718 256.767 745.951 259.894Z"/><path fill="#0E4060" d="M1066.48 214.763L1067.26 213.437L1069.6 215.022C1071.44 219.793 1073.53 225.225 1078.93 226.274C1086.82 222.656 1086.32 199.405 1087.11 190.554L1087.56 200.013C1090.01 185.484 1088.29 122.152 1095.79 111.608C1094 146.464 1092.54 181.64 1091.33 216.522C1091.04 224.81 1087.67 235.435 1077.68 233.775C1067.63 232.714 1067.48 222.532 1066.48 214.763Z"/><path fill="#0F5376" d="M853.126 158.203C852.037 157.424 852.311 157.472 851.673 156.07C864.148 132.41 886.058 131.041 900.791 117.16C904.773 116.07 906.574 117.669 911.548 118.068C911.438 116.304 911.304 115.938 911.902 114.322C927.27 114.857 942.355 113.203 957.582 113.642C961.083 113.743 986.995 118.824 989.039 120.48L988.952 122.339C950.316 113.784 915.306 112.081 879.193 133.414C864.495 142.096 862.895 148.093 853.126 158.203Z"/><path fill="#0F5376" d="M979.384 74.2708C996.34 75.2382 1029.24 77.6074 1045.99 82.2701C1045.31 82.6884 1044.47 83.2113 1043.45 83.8388C1026.28 83.7279 1000.5 80.8835 984.116 79.098C981.091 77.7081 980.888 77.2788 979.384 74.2708Z"/><path fill="#0F5376" d="M1039.36 404.094L1059.97 426.207L1018.94 411.697C1025.92 410.188 1031.98 415.898 1040.57 415.099C1043.28 412.257 1039.15 410.283 1039.36 404.094Z"/><path fill="#0F5376" d="M1073.52 88.2998C1080.56 90.1226 1093.08 91.8159 1095.18 99.5786L1094.47 107.627L1093.5 108.432L1093.51 105.971L1088.77 105.522C1088.29 104.159 1087.68 102.843 1086.96 101.591C1084.43 97.2312 1074.51 91.7817 1069.72 90.6423L1069.67 89.3523L1073.52 88.2998Z"/><path fill="#8ABD3D" d="M208.754 425.514L208.001 425.58C200.945 415.071 217.027 178.183 196.342 131.707C184.899 105.996 148.909 114.74 128.185 106.361C124.983 105.067 123.678 103.677 122.346 100.633C123.269 95.1633 128.25 91.5704 133.543 91.0235C171.004 87.1529 209.68 93.5568 247.601 93.1487C282.667 93.4593 317.607 91.888 352.626 90.4043C364.122 89.9172 397.01 85.949 400.264 100.635C396.437 116.221 361.714 105.76 345.428 119.71C326.679 135.772 329.708 176.235 327.139 201.078C326.523 250.369 324.494 327.284 327.038 379.054C327.601 379.721 328.082 380.29 328.481 380.762L329.47 381.083C327.265 388.947 299.762 391.232 295.766 394.898C299.533 395.595 301.314 395.811 305.14 395.924C269.591 405.854 243.78 413.299 208.754 425.514Z"/><defs><linearGradient id="gradient_1" gradientUnits="userSpaceOnUse" x1="260.23145" y1="418.80692" x2="272.54562" y2="211.59814"><stop offset="0" stop-color="#497E15"/><stop offset="1" stop-color="#7BB238"/></linearGradient></defs><path fill="url(#gradient_1)" d="M208.754 425.514C206.767 422.768 207.644 377.636 207.687 371.04C208.104 327.936 208.295 284.83 208.26 241.725C208.231 234.511 206.769 193.97 208.95 190.61C208.811 190.431 213.904 214.898 214.485 217.31C215.395 216.873 216.23 216.478 217.165 216.082C218.392 218.943 216.676 224.906 217.172 230.294L220.938 228.049C223.085 230.75 219.797 231.165 221.523 235.094C223.813 236.098 224.358 236.457 226.93 236.063C227.203 234.599 227.206 233.994 228.043 232.727C230.887 234.194 230.057 234.127 231.826 237.448C235.176 243.734 243.48 234.243 247.662 235.103L248.604 238.136L250.383 239.048C258.092 238.77 257.487 238.729 259.36 231.697L261.469 231.474C263.564 235.521 259.247 235.173 261.219 240.192L270.115 236.2C270.218 234.028 270.041 233.483 271.324 231.882C275.682 233.997 272.214 236.651 276.215 240.387C278.056 239.108 279.102 238.482 281.049 237.417L285.1 241.354C288.134 238.783 284.862 237.335 287.105 232.359L289.616 232.698C292.055 237.408 288.365 236.877 290.199 240.941C293.86 240.1 292.312 237.117 296.291 234.486C301.762 239.91 308.151 243.225 315.287 245.91L316.555 245.31C318.278 236.68 320.453 228.558 321.38 219.806C321.974 214.207 320.487 196.944 325.328 193.603C327.377 196.041 326.849 197.446 327.139 201.078C326.523 250.369 324.494 327.284 327.038 379.054C327.601 379.721 328.082 380.29 328.481 380.762L329.47 381.083C327.265 388.947 299.762 391.232 295.766 394.898C299.533 395.595 301.314 395.811 305.14 395.924C269.591 405.854 243.78 413.299 208.754 425.514Z"/><defs><linearGradient id="gradient_2" gradientUnits="userSpaceOnUse" x1="503.43381" y1="405.5675" x2="544.42499" y2="83.541801"><stop offset="0" stop-color="#4C7E17"/><stop offset="1" stop-color="#99CE47"/></linearGradient></defs><path fill="url(#gradient_2)" d="M522.836 177.238C532.189 165.029 556.031 137.126 552.978 119.772C551.485 111.285 529.41 109.133 526.689 100.301C526.983 94.1536 535.388 89.7951 540.824 90.129C605.708 94.114 669.699 91.9912 734.556 90.5876C742.497 90.4158 753.323 92.6751 753.513 102.368C749.265 109.569 724.419 110.954 715.685 112.456C695.019 116.009 678.176 123.68 660.198 133.906C655.155 138.582 647.243 142.598 641.623 146.935C631.923 154.421 621.046 162.255 612.231 170.718C551.962 228.585 495.275 290.102 436.178 349.157C434.02 351.314 431.747 353.696 431.123 356.632C432.519 360.987 437.284 365.697 440.468 369.303C399.026 374.317 357.065 383.87 316.423 393.253C312.722 394.107 308.835 395.256 305.14 395.924C301.314 395.811 299.533 395.595 295.766 394.898C299.762 391.232 327.265 388.947 329.47 381.083C340.223 364.576 379.547 328.24 395.1 311.843C437.488 267.159 482.276 223.643 522.836 177.238Z"/><path fill="#8ABD3D" d="M522.836 177.238C532.189 165.029 556.031 137.126 552.978 119.772C551.485 111.285 529.41 109.133 526.689 100.301C526.983 94.1536 535.388 89.7951 540.824 90.129C605.708 94.114 669.699 91.9912 734.556 90.5876C742.497 90.4158 753.323 92.6751 753.513 102.368C749.265 109.569 724.419 110.954 715.685 112.456C695.019 116.009 678.176 123.68 660.198 133.906C662.286 123.346 677.408 120.184 686.125 116.685C689.603 115.289 689.452 114.117 693.579 113.774L692.32 112.045C697.357 110.603 707.228 111.815 710.861 108.902L714.16 108.992L714.741 107.122L713.603 105.945C705.475 106.349 700.744 107.204 692.862 105.006L692.901 105.597C693.014 107.46 693.11 108.102 692.613 109.951C680.878 108.507 657.21 130.465 647.922 133.934C631.131 140.207 620.507 156.239 608.87 162.468C608.213 161.95 606.265 160.197 605.796 160.373C599.879 162.589 595.315 169.961 588.852 173.609C584.734 170.459 588.271 168.915 584.623 166.787C579.788 169.116 580.582 172.168 576.654 173.088L575.83 172.039C576.568 170.016 576.863 168.915 578.199 167.157L577.07 164.406C569 167.509 575.053 171.777 561.384 164.66C558.764 165.639 559.013 165.112 557.522 167.067C561.365 169.711 562.263 168.063 563.243 171.08L562.428 172.049L558.909 170.795C557.818 171.84 554.337 173.918 554.336 173.962C554.291 175.798 554.737 176.769 555.681 178.31C560.591 170.892 569.032 175.289 575.178 179.393C575.521 177.468 575.818 175.536 576.067 173.596L577.504 173.873C579.488 177.498 575.234 184.26 573.156 187.578C564.51 190.091 564.784 184.252 557.432 185.462C550.977 186.525 527.818 186.242 523.43 181.666L524.372 178.596L522.836 177.238Z"/><path d="M2210.96 211.956C2236.07 212.784 2284.68 209.413 2306.58 216.468C2352.48 231.259 2351.43 284.775 2301.55 298.479C2317.48 316.783 2328.11 339.542 2345.27 357.902C2353.37 369.542 2392.88 377.769 2393.13 356.713C2393.63 314.315 2394.49 268.885 2392.61 226.487L2384.78 220.351C2380.09 220.065 2372.84 220.47 2371 215.552L2372.79 212.919C2378.9 211.445 2427.11 213.262 2437.27 212.738C2453.82 213.072 2476.59 216.701 2487.9 229.836C2504.36 248.948 2501.86 276.306 2483.38 293.303C2482.79 293.741 2482.2 294.174 2481.6 294.601C2462.36 308.417 2440.53 306.047 2418.44 302.398C2418.69 318.524 2416.69 344.905 2419.6 360.492C2420.73 366.551 2435.39 370.177 2441.4 372.679L2441.63 374.55C2437.64 377.543 2337.89 376.395 2327.24 376.466C2313.75 353.829 2291.89 323.793 2276.59 301.419C2269.93 302.107 2264.72 301.94 2258.01 301.797C2258.19 319.163 2257.25 336.363 2258.43 353.788C2259.76 373.392 2276.3 365.414 2281.28 372.925C2280.38 374.436 2279.92 375.308 2277.75 375.552C2268.55 376.587 2215.66 377.494 2210.6 374.679L2210.46 373.166C2214.2 369.314 2234.01 366.677 2233.58 355.775C2231.9 313.023 2234.19 269.697 2232.58 226.976L2224.13 219.947C2219.89 219.104 2217.52 219.84 2213.08 218.371C2210.63 215.729 2211.37 216.303 2210.96 211.956Z"/><path fill="white" d="M2423.02 224.238C2426.22 224.112 2429.43 224.043 2432.64 224.03C2443.16 224.044 2453.66 227.498 2461.15 235.102C2467.92 242.09 2471.63 251.496 2471.43 261.227C2471.25 271.973 2466.76 281.375 2459.07 288.751C2443.91 298.556 2435.62 296.069 2418.42 293.295C2418.3 273.02 2417.88 251.839 2418.5 231.504C2418.64 226.879 2418.83 225.787 2423.02 224.238Z"/><path fill="white" d="M2262.07 224.302C2267.13 223.868 2272.07 223.445 2277.14 223.849C2308.18 226.324 2323.56 261.217 2298.2 282.957C2284.23 291.294 2274.05 291.896 2258.08 291.289C2257.78 271.656 2257.53 251.427 2257.89 231.756C2257.98 227.03 2258 226.232 2262.07 224.302Z"/><path d="M2508.17 212.99C2512.11 212.46 2519.46 212.439 2523.55 212.64C2552.62 214.072 2587.8 207.939 2614.55 220.775C2635.54 230.846 2643.19 255.023 2631.92 275.147C2623.79 289.677 2612.56 293.537 2597.58 297.804C2614.49 315.829 2625.98 342.443 2644.15 360.015C2648.67 364.384 2664.69 369.574 2667.11 374.325C2662.99 376.437 2631.3 376.33 2624.5 376.528C2620.03 368.606 2612.55 358.199 2607.27 350.456C2597.04 335.932 2583.8 313.632 2573.17 300.893L2555.13 301.682C2555.39 319.671 2553.51 338.786 2555.71 356.666C2556.42 362.511 2559.32 364.717 2563.59 368.238C2568.86 368.883 2573.31 368.874 2577.32 372.327L2577.24 373.9C2571.43 377.421 2516.22 376.755 2509.13 375.185L2508.15 373.645L2508.63 371.818C2512.64 368.833 2517.97 369.662 2522.46 367.899C2525 366.9 2527.27 364.042 2528.34 361.597C2531.67 354.002 2532.23 234.343 2528.97 226.619C2525.78 219.056 2517.17 221.739 2511.3 218.945C2508.9 217.801 2508.82 215.302 2508.17 212.99Z"/><path fill="white" d="M2560.37 224.311C2568.2 223.711 2575.78 223.147 2583.25 225.739C2611.02 235.371 2615.66 263.54 2595.3 283.4C2582.84 291.677 2569.45 291.506 2555.26 291.255C2555.69 272.56 2554.72 253.56 2555.19 234.843C2555.33 229.073 2554.92 226.632 2560.37 224.311Z"/><path d="M1277.2 290.569C1290.2 277.422 1303.12 264.201 1315.97 250.907C1321.44 245.247 1335.65 232.764 1335.93 225.532C1332.85 220.78 1322.18 221.129 1320.8 215.343C1323.16 212.674 1326.79 212.265 1330.16 212.62C1339.96 213.655 1375.49 210.074 1381.82 215.573C1381.31 221.062 1367.69 220.781 1363.62 223.575C1349.79 233.086 1310.78 272.158 1301.71 284.605C1324.02 306.049 1346.43 332.842 1369.18 355.191C1375.2 360.393 1381.73 366.043 1389.51 368.431C1393.8 369.746 1396.25 369.581 1400.58 371.627L1401.24 373.495C1400.02 374.893 1399.51 375.828 1397.4 375.709C1385.83 375.056 1330.92 378.934 1323.92 373.7L1324.16 372.387C1330.38 369.7 1335.47 369.662 1337.49 362.859C1336.8 358.2 1334.55 355.301 1331.37 351.988C1313.19 333.079 1295.85 312.65 1277.07 294.377C1278.27 314.86 1275.37 336.416 1278.35 356.639C1279.19 362.317 1282.37 365.154 1286.37 368.888C1291.73 369.215 1298.2 367.97 1299.75 373.562C1298.68 374.811 1297.89 375.891 1295.88 375.819C1285.47 375.442 1237.66 378.539 1230.91 373.628L1231.5 371.992C1235.35 369.169 1240.34 368.886 1245.15 368.136L1251.74 359.909C1252.7 345.296 1252.19 325.489 1252.18 310.612C1252.26 283.474 1252.13 256.336 1251.78 229.201L1245.7 221.679C1237.51 220.276 1232.33 221.305 1229.74 212.961C1241.93 212.382 1287.51 211.988 1298.25 213.684C1299.56 216.183 1299.35 215.022 1298.58 218.306C1296.35 220.034 1290.07 219.859 1286.91 220.023C1280.96 224.66 1278.11 229.052 1277.73 236.602C1276.83 254.402 1277.57 272.73 1277.2 290.569Z"/><path d="M1742.61 212.397C1756.7 212.489 1770.8 212.348 1784.89 211.976C1790.91 220.46 1802.68 234.226 1809.72 243.019C1833.49 272.674 1857.2 301.525 1880.44 331.665C1879.52 298.178 1879.96 263.359 1879.96 229.771C1871.93 221.209 1869.71 221.818 1858.66 216.814L1858.66 215.158C1863.36 210.904 1908.58 211.067 1915.23 212.867C1915.89 215.841 1915.85 214.762 1914.7 217.791C1911.97 219.997 1906.97 219.894 1903.29 220.198C1899.87 223.267 1897.53 226.024 1894.53 229.457C1891.44 249.458 1897.27 372.942 1892.36 378.36C1888.92 378.638 1888.41 378.362 1885.19 377.026L1781.87 248.092C1782.78 272.578 1781.64 298.197 1782.01 322.767C1782.19 334.612 1781.38 349.427 1783.07 360.912C1792.43 370.163 1801.26 368.429 1805.31 374.082L1804.39 375.288C1798.57 376.761 1749.6 377.042 1745.99 374.921L1745.82 372.429C1751.97 364.879 1769.32 373.047 1768.69 350.111C1768.41 339.909 1768.57 325.446 1768.51 315.017L1768.24 233.278C1755.19 219.594 1749.57 222.698 1742.44 216.778C1741.71 213.894 1741.63 215.042 1742.61 212.397Z"/><path fill="#0E4060" d="M2889.84 513.82C2918.15 509.881 2944.25 529.725 2948.03 558.051C2951.81 586.377 2931.82 612.369 2903.47 615.988C2875.35 619.578 2849.61 599.781 2845.86 571.68C2842.11 543.579 2861.76 517.726 2889.84 513.82Z"/><path fill="white" d="M2889.47 530.514C2896.04 529.787 2902.31 529.581 2908.47 532.452C2915.92 535.929 2921.04 542.326 2923.74 549.962C2927.45 560.448 2926.98 573.23 2922.14 583.288C2918.08 591.722 2912.41 596.266 2903.67 599.379C2897.16 600.448 2890.61 600.288 2884.61 597.27C2877.33 593.608 2872.37 586.942 2869.84 579.327C2866.37 568.893 2866.7 555.083 2871.71 545.181C2875.63 537.419 2881.33 533.169 2889.47 530.514Z"/><path d="M2896.76 211.944C2938.78 212.751 2980.82 212.81 3022.85 212.122C3022.94 219.894 3027.04 251.178 3019.87 253.089C3011.78 248.205 3017.99 236.169 3001.69 224.497C2982.98 223.597 2962.11 223.897 2943.19 223.82C2942.83 243.551 2943.14 264.208 2943.16 284.008C2957.86 284.224 2976.21 284.33 2990.64 283.255L2999.33 273.91C2999.88 268.85 2998.91 263.187 3003.92 260.855C3006.88 261.782 3005.93 261.084 3007.7 263.328C3008.6 270.921 3008.9 310.006 3007.29 316.609C3005.24 317.893 3000.15 318.72 3000.02 315.981C2999.44 303.217 2998.97 303.971 2989.63 295.638C2974.62 294.687 2958.69 295.015 2943.58 295.074C2943.37 298.85 2943.37 303.41 2943.27 307.25C2943.16 317.364 2941.93 354.607 2945.06 361.843C2949.95 365.69 2982.84 364.173 2990.61 364.266C3006.28 363.926 3016.6 355.076 3023 341.344C3025.2 336.625 3026.68 329.519 3032.32 329.471C3036.6 334.999 3026 368.633 3023.92 376.573C3007.63 375.347 2900.47 377.675 2895.56 374.824L2895.4 373.025C2898.93 369.317 2907.32 369.591 2912.12 367.093C2914.55 365.831 2916.7 363.873 2917.52 361.196C2919.98 353.229 2919.25 229.666 2916.75 225.117C2914.11 220.32 2904.13 219.339 2899.12 217.983C2896.54 215.321 2897.29 216.207 2896.76 211.944Z"/><path d="M1594.8 212.191C1635.86 213.131 1680.7 212.799 1721.84 212.102C1721.66 220.724 1723.89 245.512 1720.15 251.056C1713.71 251.985 1712.56 236.954 1709.51 233.043C1706.4 229.056 1702.28 226.748 1698.04 224.18C1680.63 223.363 1659.19 223.818 1641.47 223.763L1641.76 284.356C1657.24 284.619 1672.73 284.503 1688.2 284.006C1697.96 274.719 1698.01 265.54 1703.16 262.115L1704.6 262.999C1704.93 264.038 1705.97 267.974 1705.8 268.919C1704.24 277.315 1711.1 317.501 1700.35 317.996C1698.31 316.294 1698.6 315.959 1698.31 313.166C1697.44 304.706 1694 301.329 1688.44 295.285C1674.17 294.51 1656.49 294.921 1641.96 294.871L1641.86 306.5C1641.65 324.266 1640.2 344.359 1643.08 361.638C1643.78 365.857 1668.05 364.181 1671.75 364.416C1698.98 366.146 1710.46 362.849 1723.12 337.795C1724.21 335.646 1727.24 331.978 1729.68 330.96L1731.05 331.987C1731.85 342.675 1724.61 365.805 1721.58 376.711C1707.53 376.131 1599.52 377.801 1595.76 375.048C1594.74 374.3 1594.88 373.696 1594.69 372.518C1597.81 369.467 1607.59 370.152 1613.31 364.344C1615.18 362.443 1616.39 359.987 1616.75 357.343C1617.74 350.327 1617.24 322.289 1617.24 314.081C1617.34 285.053 1617.21 256.025 1616.87 227L1610.01 220.435C1601.6 219.595 1596.32 221.126 1594.8 212.191Z"/><path d="M2068.62 212.223C2110.06 211.06 2153.72 212.92 2195.9 211.882C2195.83 222.056 2195.83 232.156 2196.52 242.31C2196.77 246.005 2197.46 249.146 2194.14 251.337C2187.21 248.998 2188.75 240.234 2184.89 234.523C2181.7 229.788 2177.94 227.366 2173.34 224.29C2155.67 223.104 2133.81 223.784 2115.88 223.928L2115.69 284.348C2131.34 284.454 2146.98 284.241 2162.61 283.707C2174.09 274.942 2171.39 265.697 2178 262.42C2180.72 265.392 2183.38 317.014 2175.67 318.259C2171.49 315.784 2172.08 309.335 2171.72 304.783C2168.75 301.528 2165 298.088 2161.78 294.999C2153.95 294.92 2123.48 294.12 2116.93 295.475C2115.53 298.036 2115.95 302.532 2115.98 305.618C2116.15 321.47 2116.3 337.179 2115.48 353.015C2115.37 355.077 2116.77 360.788 2118.8 361.833C2131.12 368.178 2150.25 363.218 2164.18 364.389C2189.32 364.996 2193.1 340.983 2201.11 332.143C2204.67 331.607 2204.06 331.138 2206.76 332.518C2206.16 340.789 2199.05 364.812 2197.24 376.056C2184.45 376.606 2073.91 377.439 2070.15 375.18L2070.05 373.159C2073.34 368.88 2091.24 367.629 2091.28 357.986C2091.34 344.856 2091.21 331.672 2091.21 318.531C2091.31 288.35 2091.21 258.168 2090.9 227.988C2088.55 225.375 2085.64 222.557 2083.14 220.023C2078.73 219.491 2076.22 219.977 2071.63 218.495C2068.83 215.847 2069.65 216.513 2068.62 212.223Z"/><path fill="#0E4060" d="M2741.77 513.882C2765.44 512.8 2797.47 510.701 2816.6 526.863C2826.42 535.162 2831.11 546.883 2832.15 559.492C2833.49 575.777 2829.5 588.772 2818.96 601.193C2798.6 620.213 2767.83 616 2742.07 615.581L2741.77 513.882Z"/><path fill="white" d="M2762.61 530.639C2774.3 530.463 2788.47 528.91 2798.65 535.771C2805.37 540.304 2808.96 547.758 2810.33 555.542C2812.6 568.497 2809.71 580.727 2802.17 591.356L2801.91 591.608C2791.25 601.795 2776.6 600.197 2763.03 599.849C2762.16 576.863 2762.71 553.652 2762.61 530.639Z"/><path d="M1451.99 208.443C1466.62 207.112 1481.03 211.76 1494.26 217.482C1497.16 213.692 1499.87 209.449 1504.56 208.341C1505.75 209.097 1506.95 209.671 1506.97 211.425C1507.1 220.555 1508.81 257.542 1505.18 263.563L1503.74 263.906C1497.51 260.142 1495.21 235.214 1483.67 226.938C1471.08 217.905 1447.22 214.098 1437.15 228.395C1411.73 264.498 1478.25 279.629 1497.25 297.466C1507.53 307.111 1514.85 314.591 1516.38 329.722C1517.45 341.269 1513.88 352.766 1506.45 361.67C1495.55 374.762 1481.56 378.482 1465.42 379.937C1448.65 379.958 1439.11 374.923 1423.14 371.272C1414.71 369.344 1417.14 378.869 1409.78 377.858C1407.17 374.354 1405.5 326.959 1408.86 323.4C1415.44 325.593 1421.65 351.196 1430.18 357.941C1445.11 369.743 1470.64 375.601 1484.31 359.31C1504.4 335.05 1479.07 316.062 1457.56 305.316C1425.66 289.377 1390.77 264.79 1417.22 225.593C1424.78 214.397 1438.81 209.989 1451.99 208.443Z"/><path d="M3144.62 217.276C3147.42 213.736 3150.72 208.262 3155.43 208.223C3158.29 211.17 3160.06 262.305 3154.17 264.788C3147.51 260.086 3149.33 240.904 3133.3 227.376C3112.06 209.447 3075.77 222.383 3081.48 247.02C3089.19 280.304 3162.34 285.639 3166.04 327.152C3169.88 360.48 3147.37 375.987 3117.23 379.961C3100.03 380.666 3089.21 375.347 3072.69 371.845C3062.92 369.772 3068.2 379.717 3058.67 377.752C3056.24 374.283 3057.1 334.627 3057.02 327.763C3056.99 325.714 3058.19 325.009 3059.61 323.73C3064.09 324.819 3064.9 330.383 3066.1 335.052C3075.92 373.509 3140.28 388.944 3141.53 337.937C3141.85 324.605 3118.34 311.071 3106.92 304.813C3082.81 291.607 3050.96 275.853 3059.06 242.094C3064.05 220.839 3080.36 211.178 3100.98 208.313C3115.36 206.436 3131.45 212.554 3144.62 217.276Z"/><path d="M2864.36 206.304C2867 207.684 2867.73 209.407 2867.57 212.369C2867.06 221.239 2870.11 259.006 2865.68 264.212C2860.71 262.34 2856.12 244.394 2851.9 236.916C2839.14 214.283 2798.21 211.669 2791.27 240.017C2787.59 257.955 2815.39 274.352 2830.08 280.641C2870.43 297.92 2898.39 337.331 2855.58 371.262C2835.24 387.382 2803.56 375.663 2779.45 370.609C2776.47 374.514 2775.16 376.619 2770.86 379.152C2768.39 377.926 2769.22 378.669 2767.74 376.304C2767.03 362.154 2768.23 348.04 2767.25 333.925C2766.96 329.762 2766.24 327.609 2768.92 324.112L2771.65 323.954C2774.89 325.798 2779.85 340.314 2781.64 344.771C2792.79 372.517 2843 381.235 2851.65 347.051C2853.42 340.03 2852.4 332.694 2847.74 327.072C2824.01 298.467 2755.08 290.353 2770.4 239.49C2773.67 228.656 2781.16 219.593 2791.19 214.345C2812.15 203.327 2835.07 210.52 2855.77 216.938C2858.69 213.442 2861.56 209.896 2864.36 206.304Z"/><path fill="#0E4060" d="M2426.63 514.052L2449.11 514.198C2454.42 536.758 2462.96 564.549 2469.15 587.309C2475.1 560.067 2484.72 539.071 2490.97 514.3L2508.15 514.421C2513.1 536.426 2522.96 563.273 2529.15 586.318C2536.28 565.774 2540.45 535.752 2549.06 515.245C2549.39 514.466 2551.08 514.263 2552.17 513.966C2557.98 514.043 2563.8 514.067 2569.62 514.038C2568.59 517.565 2566.97 523.777 2565.52 526.926C2560.21 552.995 2545.5 586.696 2540.2 615.449C2533.87 615.636 2526.31 615.294 2519.89 615.163C2515.22 591.835 2504.38 565.948 2499.5 541.323C2492.85 561.179 2481.42 596.006 2476.64 615.766L2457.36 615.614C2450.28 586.458 2435.84 543.507 2426.63 514.052Z"/><path fill="#0F5376" d="M2552.17 513.966C2557.98 514.043 2563.8 514.067 2569.62 514.038C2568.59 517.565 2566.97 523.777 2565.52 526.926C2564.88 526.014 2563.88 523.28 2563.41 522.113C2559.42 520.076 2555.73 520.041 2551.26 519.677L2550.49 518.205L2552.17 513.966Z"/><path d="M1923.25 212.059C1967.19 213.005 2017.07 212.986 2060.95 212.06C2060.71 222.168 2063.69 247.063 2058.38 253.016C2050.69 251.866 2055.58 240.102 2046.28 231.814C2035.09 221.831 2018.51 224.239 2004.37 224.593C2004.48 242.611 2002.99 353.351 2007.01 362.323C2014.39 370.465 2017.34 367.148 2027.49 371.43L2027.28 373.926C2024.07 376.939 1967.12 376.692 1959.99 375.616C1957.62 373.394 1957.89 374.287 1957.38 371.494L1958.49 370.247C1962.24 368.594 1967.45 368.927 1971.66 368.88C1974.01 366.79 1977.45 362.891 1979.71 360.492C1981.28 318.306 1979.82 267.351 1979.94 224.129C1965.61 224.122 1945.26 221.436 1935.33 233.843L1934.91 234.376C1929.05 241.73 1933.05 250.112 1925.71 253.527L1924.12 252.074C1921.16 244.228 1922.9 221.663 1923.25 212.059Z"/><path fill="#0E4060" d="M1852.49 514.142C1859.55 513.781 1866.68 513.958 1873.74 513.946C1884.98 535.864 1897.21 557.85 1906.4 580.712C1916.89 558.292 1927.71 536.023 1938.85 513.914C1946.06 514.056 1953.27 514.154 1960.48 514.206C1960.4 547.874 1960.55 581.541 1960.91 615.206C1954.58 615.309 1948.23 615.266 1941.9 615.292L1942.18 573.736C1942.33 564.194 1942.73 554.645 1943.03 545.106C1937.15 555.644 1918.15 600.274 1909.23 604.175C1907.23 605.049 1905.59 604.992 1903.57 604.233C1894.29 600.747 1875.62 555.242 1870.72 544.936C1869.89 568.422 1870.85 592.292 1870.6 615.834C1864.56 615.961 1858.52 615.627 1852.48 615.368C1851.11 581.86 1852.21 547.702 1852.49 514.142Z"/><path fill="#0E4060" d="M1567.23 514.049L1588.83 514.143C1591.73 521.797 1596.24 529.231 1599.97 536.551C1607.4 551.138 1614.8 565.652 1621.39 580.649C1632.12 558.56 1643.82 536.579 1653.42 513.995L1675.4 514.123C1677 547.584 1675 581.325 1675.95 614.843C1669.69 615.049 1663.4 614.952 1657.14 614.981L1657.22 575.164C1657.47 565.632 1657.46 556.095 1657.19 546.563C1650.58 558.111 1633.57 600.127 1624.45 604.419C1622.51 605.331 1620.58 605.703 1618.53 604.871C1609.67 601.285 1590.09 554.913 1585.45 544.497C1584.37 567.898 1585.43 591.86 1586 615.3C1580.04 615.579 1573.08 615.323 1567.04 615.243C1568.06 583.276 1567.46 546.248 1567.23 514.049Z"/><path fill="#0E4060" d="M2966.85 513.624C2982.56 513.679 3000.65 512.182 3015.88 516.12C3023.97 518.21 3031.85 522.568 3036.09 530.031C3040.01 536.916 3040.33 545.634 3038.22 553.172C3035.59 562.533 3029.13 567.839 3021.05 572.329C3030 586.722 3038.39 602.222 3048.94 615.483L3025.25 615.572C3021.7 612.907 3005.44 583.385 3001.95 577.705C2996.97 577.261 2992.24 577.282 2987.25 577.592C2988.03 590.136 2987.34 603.002 2987.21 615.577C2980.2 615.957 2973.21 615.72 2966.2 615.519C2966.85 581.558 2967.06 547.591 2966.85 513.624Z"/><path fill="white" d="M2987.29 530.008C2995.13 529.875 3002.83 530.485 3010.63 531.141C3014.65 534.524 3017.95 538.088 3018.85 543.461C3019.78 549.047 3017.31 553.325 3014.21 557.673C3013.85 558.007 3013.49 558.287 3013.11 558.604C3007.4 563.438 2995.07 562.001 2987.85 562.014C2987.91 551.321 2987.95 540.685 2987.29 530.008Z"/><path fill="#0E4060" d="M1383.32 513.654C1405.77 513.75 1449.01 508.634 1454.2 538.366C1457.07 554.808 1450.21 564.82 1436.34 572.181C1444.38 581.735 1457.73 604.137 1464.82 615.417C1457.09 616.085 1449.09 615.788 1441.31 615.652C1436.74 613.748 1426.56 586.647 1420.22 581.61C1413.2 576.035 1413 576.872 1403.55 577.374C1404.13 588.983 1403.8 603.338 1403.97 615.273C1395.61 615.889 1391.28 615.712 1382.95 615.18L1383.32 513.654Z"/><path fill="white" d="M1403.44 530.316C1412.66 529.59 1423.25 528.955 1430.9 535.177C1433.42 537.229 1435.19 539.877 1435.47 543.171C1435.94 548.636 1433.32 553.82 1429.98 557.929C1422.15 562.773 1412.84 561.979 1403.96 562.091C1404.03 551.497 1403.86 540.902 1403.44 530.316Z"/><path fill="#0E4060" d="M2111.36 513.955C2130.77 513.906 2158.96 510.226 2174.9 523.063C2181.19 528.131 2184.89 535.303 2185.66 543.307C2186.55 552.317 2183.81 561.31 2178.04 568.286C2170.05 577.791 2160.03 579.67 2148.25 580.623C2142.91 581.179 2137.25 580.858 2131.86 580.883C2131.92 592.424 2132.06 603.964 2132.28 615.502C2125.21 615.794 2118.2 615.553 2111.14 615.288C2111.62 581.558 2111.94 547.682 2111.36 513.955Z"/><path fill="white" d="M2131.78 530.352C2140.28 530.375 2151.04 529.278 2158.6 533.698C2161.6 535.451 2164.16 538.432 2164.98 541.857C2166.62 548.775 2163.33 555.265 2159.88 560.975C2153.42 566.803 2140.18 564.979 2132.01 564.809L2131.78 530.352Z"/><path fill="#0E4060" d="M2698.53 513.795C2704.72 513.691 2710.93 513.789 2717.11 513.791L2717.17 615.497C2712.27 615.99 2707.2 615.476 2702.29 615.25C2696.22 609.026 2691.07 601.292 2685.68 594.421C2673.86 579.371 2662.15 564.16 2649.75 549.585L2649.64 615.312L2631.11 614.99C2631.99 581.367 2631.3 547.589 2631.19 513.951L2644.75 514.171C2650.73 522.521 2657.93 530.324 2664.5 538.234C2676.23 552.366 2687.65 566.469 2698.55 581.256L2698.53 513.795Z"/><path fill="#0E4060" d="M1290.03 513.645C1315.22 513.769 1361.36 508.133 1364.48 543.922C1365.28 552.733 1362.53 561.5 1356.85 568.278C1349.57 576.907 1341.62 579.34 1330.87 580.297L1310.27 581.019L1310.44 615.973C1303.89 615.912 1297.25 615.987 1290.69 616.003C1289.49 583.515 1290.28 546.498 1290.03 513.645Z"/><path fill="white" d="M1310.28 530.006C1319.55 529.914 1330.49 528.947 1338.44 534.614C1341.26 536.619 1343.71 539.595 1344.24 543.104C1345.26 549.811 1341.67 555.943 1337.78 561.021C1331.2 566.227 1318.74 564.64 1310.72 564.576C1310.65 553.052 1310.5 541.528 1310.28 530.006Z"/><path d="M2673.07 212.234C2681.29 211.688 2737.65 212.321 2743.27 213.854L2743.96 215.124C2737.8 221.684 2728.93 215.859 2720.58 230.41C2719.91 248.008 2718.04 352.984 2722.47 361.427C2726.84 369.747 2734.8 367.768 2742.09 370.438C2744.34 371.261 2744.67 372.755 2745.64 374.728C2740.82 377.389 2676.61 378.078 2672.82 373.067L2673.31 371.382C2681.03 366.351 2685.02 376.207 2695.8 359.803C2696.84 349.129 2695.99 326.607 2695.95 315.057L2695.78 229.115C2693.88 226.989 2691.26 222.875 2689.57 220.394C2680.61 219.088 2675.5 222.287 2673.07 212.234Z"/><path fill="#0E4060" d="M1808.28 514.15C1814.86 514.052 1821.46 514.18 1828.04 514.2L1828.22 530.318C1828.46 551.465 1833.42 588.757 1817.95 604.839C1810.52 612.554 1799.75 616.189 1789.2 616.366C1777.73 616.559 1765.27 612.921 1756.94 604.747C1752.96 600.873 1750.04 596.041 1748.46 590.715C1743.14 572.694 1745.59 534.505 1745.45 514.21L1766.15 514.202C1766.24 532.076 1762.49 582.443 1774.56 594.536C1778.08 598.067 1782.64 599.598 1787.58 599.546C1792.65 599.493 1797.44 597.855 1801.01 594.174C1804.52 590.554 1806.48 585.708 1807.49 580.827C1810.78 564.807 1808.39 531.87 1808.28 514.15Z"/><path fill="#0E4060" d="M1479.36 513.821C1501.06 514.439 1524.42 514.061 1546.24 514.089L1545.78 530.869L1500.44 530.962L1500.14 555.906C1511.27 556.691 1525.62 556.369 1537.01 556.402L1536.51 571.266C1528.13 571.816 1508.13 569.65 1501.26 573.319C1500.79 573.573 1500.76 576.78 1500.7 577.75L1500.48 599.283C1515.2 598.88 1531.27 599.171 1546.1 599.141L1546.26 615.775L1479.92 615.619C1479.84 582.546 1480.46 546.672 1479.36 513.821Z"/><path fill="#0E4060" d="M2192.09 513.907C2198.94 513.569 2205.93 514.061 2212.79 514.26C2224.46 538.084 2233.68 565.436 2241.38 590.823C2249.38 564.735 2260.16 539.943 2269.19 514.27C2275.97 513.818 2282.81 513.988 2289.6 513.993C2287.7 521.006 2284.75 527.821 2282.15 534.602C2271.12 560.858 2259.41 588.591 2251.27 615.853C2244.72 616.17 2238.14 615.745 2231.59 615.465C2229.52 605.472 2224.53 595.324 2220.69 585.877C2211.05 562.229 2199.56 538.268 2192.09 513.907Z"/><path fill="#0E4060" d="M3086.04 513.242C3096.36 512.136 3121.18 514.367 3124.38 526.089C3123.49 530.014 3118.96 535.089 3116.31 538.501C3110.3 535.058 3079.58 519.319 3080.19 542.175C3083.38 552.873 3105.63 556.251 3112.58 561.469C3139.41 581.615 3126.35 610.474 3096.98 616.337C3084.38 617.193 3075.67 614.205 3064.42 610.063C3051.44 605.285 3064.07 591.157 3066.06 591.514C3074.24 592.975 3088.03 602.658 3098.44 599.496C3100.88 598.755 3102.85 597.487 3104.12 594.979C3113.26 574.571 3087.27 573.126 3074.19 566.399C3058.19 558.174 3056.86 542.743 3063.77 527.559C3067.56 519.236 3077.57 515.48 3086.04 513.242Z"/><path fill="#0E4060" d="M2329.28 614.51C2322.99 612.934 2313.09 607.269 2308.79 602.338C2267.19 554.69 2322.16 484.807 2376.26 524.461C2378.15 525.846 2378.09 528.286 2378.06 530.37C2376.29 534.466 2372.08 537.56 2368.64 540.585C2307.69 494.556 2295.2 614.474 2355.04 598.568C2360.12 595.399 2365.08 592.276 2370.28 589.312C2374.01 592.611 2378.43 596.334 2381.81 599.888C2367.83 613.353 2348.61 621.771 2329.28 614.51Z"/><path fill="#0F5376" d="M2355.04 598.568C2360.12 595.399 2365.08 592.276 2370.28 589.312C2374.01 592.611 2378.43 596.334 2381.81 599.888C2367.83 613.353 2348.61 621.771 2329.28 614.51C2334.82 611.432 2370.28 616.341 2369.12 599.422C2365 595.303 2362.72 598.882 2355.04 598.568Z"/><path fill="#0E4060" d="M2023.39 541.374L2042.06 541.486C2042.25 558.752 2042.71 576.013 2043.45 593.264C2043.54 593.398 2043.63 593.534 2043.73 593.667C2046.25 597.183 2049.59 600.969 2054.09 601.639C2059.59 602.457 2064.06 598.794 2068.24 595.786C2069.03 577.884 2068.55 559.738 2068.6 541.809C2075.13 541.459 2081.7 541.669 2088.23 541.755L2088.36 567.5L2088.86 615.455C2085.98 615.742 2082.96 616.153 2080.08 616.077C2074.74 615.938 2073.22 611.774 2070 608.454C2064.48 608.988 2057.63 615.877 2048.73 616.938C2043.07 617.612 2037.65 616.538 2033.16 612.909C2026.84 607.805 2023.9 599.407 2023 591.566C2022.27 585.224 2020.87 544.539 2023.39 541.374Z"/><path fill="#0E4060" d="M1700.84 514.175L1721.81 514.251C1721.91 547.673 1721.12 581.36 1722.49 614.746C1715.32 614.977 1708.1 614.809 1700.93 614.814C1701.79 581.327 1700.43 547.693 1700.84 514.175Z"/><path fill="#0E4060" d="M2585.09 514.329C2591.95 514.214 2598.76 514.202 2605.61 514.474C2604.73 548.182 2605.27 581.991 2605.34 615.71L2585.21 615.165C2585.95 581.614 2585.04 547.902 2585.09 514.329Z"/></svg>